<?xml version="1.0" encoding="utf-8"?>
<!-- Generator: Adobe Illustrator 21.1.0, SVG Export Plug-In . SVG Version: 6.00 Build 0)  -->
<svg version="1.1" id="Camada_1" xmlns="http://www.w3.org/2000/svg" xmlns:xlink="http://www.w3.org/1999/xlink" x="0px" y="0px"
	 viewBox="0 0 209.2 209.2" style="enable-background:new 0 0 209.2 209.2;" xml:space="preserve">
<style type="text/css">
	.st0{fill:#1C1616;}
	.st1{fill:none;stroke:#1C1616;stroke-width:0.75;stroke-miterlimit:10;}
	.st2{fill:#606060;}
</style>
<g>
	<g>
		<g>
			<path class="st0" d="M24.8,121.1C34,101.2,42.2,80.8,49.2,60c3.4-10.2,7.4-20.7,9.5-31.3c1.1-5.5,1-16.4-6.9-16.8
				c-6.3-0.4-9.2,7.9-11,12.6c-3.7,9.5-5.2,19.7-6.9,29.6c-3.7,22.6-6.3,45.3-7.9,68.1c-1.7,25.2-2,50.5-1,75.8
				c0,0.8,2.9,0.2,2.9-0.8c-1.6-40.6,0.2-81.3,5.6-121.6c1.3-9.8,2.8-19.6,4.5-29.4c1.5-8.5,3.2-17.2,6.8-25.2
				c0.9-1.9,1.7-4.3,3.2-5.8c3.4-3.3,6.3,0.3,7.4,3.1c2,4.8,0.5,10.4-0.8,15.2c-2.6,9.4-5.6,18.6-8.7,27.8
				c-6.9,20.5-15,40.6-24.1,60.2C21.6,122.2,24.4,122,24.8,121.1L24.8,121.1z"/>
		</g>
		<g>
			<path class="st0" d="M36.3,104.1c5.6-6.2,10.7-12.6,12.3-21c0.3-1.4-2.4-0.5-2.8,0.1c-2.8,4-4.9,8.4-6.1,13.1
				c-0.9,3.4-2.9,10.2-0.8,13.5c3.7,5.7,11.9-7.1,13.8-9.3c-0.9-0.1-1.7-0.1-2.6-0.2c-0.7,2.4-1.8,7.3,1.6,8.2
				c3.7,0.9,7.7-4.9,9.7-6.8c-0.9,0-1.7,0-2.6,0.1c0.6,2.3-1.3,6.6,2.7,6.4c3.2-0.1,6-4.1,7.4-6.5c-0.9,0.1-1.9,0.2-2.8,0.3
				c0.4,1.6,0.3,3.1-0.2,4.6c-0.1,0.3,0.1,0.5,0.3,0.6c3.5,2.6,7.4,1.3,9.9-2c0.8-1.1-2.1-1-2.7-0.2c-3.4,1.2-4.8,0.5-4.2-2
				c0-0.6-0.1-1.2-0.2-1.9c-0.2-1.2-2.4-0.3-2.8,0.3c-0.8,1.4-3.3,5.4-4.4,2.6c-0.3-0.7,0.1-2.2-0.1-3.1c-0.3-1-2.1-0.4-2.6,0.1
				c-1.3,1.2-4.3,5.1-5.9,4.6c-1.8-0.6-0.7-4.2-0.3-5.7c0.4-1.2-2.2-0.6-2.6-0.2c-2.1,2.4-4.3,5.9-6.9,7.7c-1.4,1-1.1,1.8-2.1-0.2
				c-0.7-1.4,0-4.2,0.2-5.7c0.8-6.6,3.2-12.9,7.1-18.3c-0.9,0-1.9,0-2.8,0.1c-1.5,8.1-6.3,14.1-11.7,20
				C32.8,104.8,35.6,104.9,36.3,104.1L36.3,104.1z"/>
		</g>
		<g>
			<path class="st0" d="M116.4,48.9c-7.7-12-21.9-7.8-29,2.4c-4.7,6.9-6.8,15.4-7.9,23.5c-1,7.5-1.3,15.7,1.2,22.9
				c2,5.7,6,10.4,12.1,11.5c5.9,1,13.8-0.9,18.5-4.7c4.1-3.3,5.9-9.8,1.5-13.6c-4.2-3.7-11.2-3.4-15.3,0.4c-1.5,1.4-2.9,3.8-1.4,5.7
				c1.7,2.1,5.9,1.3,8.2,2.2c10.1,4.1,4.8,15.8,9.8,23c0.8,1.1,3.5,0,2.6-1.3c-3.3-4.9-1.6-11.1-3.5-16.5c-1.4-3.8-4.5-6.5-8.4-7.7
				c-0.9-0.3-1.8-0.3-2.7-0.6c-0.6-0.1-1.2-0.1-1.8-0.1c0.2-4.4,2-6.1,5.2-5.2c5.7,0.4,9.2,5.9,5.2,11c-5.2,6.6-18.7,7.3-24,1
				c-7.7-9.1-5.5-24.8-3.1-35.4c1.7-7.5,4.7-15.6,10.9-20.6c6.7-5.4,14.7-3.7,19.2,3.3C114.5,51.3,117.2,50.2,116.4,48.9L116.4,48.9
				z"/>
		</g>
		<g>
			<path class="st0" d="M120.9,97.4c-0.6,3.5,2.6,5.6,5.5,3.2c3.2-2.7-0.7-9-4.1-9.9c-2.8-0.7-6.2,1.2-5.8,4.4
				c0.6,4.9,7.2,5.3,10.6,3.8c2.8-1.2,5-4.2,7.9-1.6c1.5,1.3,2.4,3.3,4.4,4.2c4.5,2,6.8-3.4,10.9-3.2c2.2,0.1,3.6,1.2,5.9,0.9
				c1.8-0.2,3.6-0.9,5.1-1.8c3.1-1.9,9.4-9.9,3.1-11.8c-0.7-0.2-2.6,0-2.6,1c0,4.5,4.4,5.6,7.4,7.9c1.1,0.8,2.1,1.7,2.9,2.8
				c2,2.4,2.4,3.1,0.4,5.8c-1.8,2.5-3.7,2.5-6.3,3.8c-1.7,0.9,0.9,1.1,1.7,0.7c3.4-1.7,10.5-2.2,8.8-8c-1.7-6.2-12.2-7.4-12.1-13.6
				c-0.9,0.3-1.7,0.7-2.6,1c4,1.2,1.3,6,0,7.6c-2.6,3.2-6.4,3-10.1,2.4c-1.3-0.2-2.3-0.4-3.6-0.1c-1.9,0.5-2.7,2-4.4,2.8
				c-3.2,1.4-4.5-1.3-6.3-3.2c-1.8-1.9-3.6-3.1-6.3-2.2c-0.6,0.2-1.2,0.6-1.8,1c-0.4,0.4-0.9,0.8-1.3,1.2c-2.6,0.1-5.2,0.3-7.8,0.4
				c-1.8-1.7-1.5-3,0.8-3.9c0.8,0.7,1.4,1.5,2,2.4c0.7,0.8,1.2,1.8,1.5,2.8c-1,1.6-1.4,1.4-0.9-0.8C123.9,96.1,121,96.6,120.9,97.4
				L120.9,97.4z"/>
		</g>
	</g>
	<line class="st1" x1="38.7" y1="133.9" x2="175.6" y2="133.9"/>
	<g>
		<path class="st2" d="M46.9,150h-6.1l-1.3,2.9h-0.7l4.7-10.3h0.7l4.7,10.3h-0.7L46.9,150z M46.6,149.4l-2.8-6.1l-2.7,6.1H46.6z"/>
		<path class="st2" d="M60.7,152.9l-2.4-3.5c-0.3,0-0.6,0.1-0.9,0.1h-3v3.4h-0.6v-10.3h3.7c2.6,0,4,1.2,4,3.4c0,1.8-0.9,2.9-2.5,3.3
			l2.6,3.6H60.7z M57.4,148.9c2.2,0,3.4-1,3.4-2.9c0-1.8-1.2-2.8-3.4-2.8h-3v5.7H57.4z"/>
		<path class="st2" d="M73.4,142.6v0.6h-3.5v9.7h-0.6v-9.7h-3.5v-0.6H73.4z"/>
		<path d="M87.8,147.8c0,2.9-2.4,5.2-5.3,5.2h-4.1v-10.3h4.1C85.4,142.6,87.8,144.9,87.8,147.8z M87.1,147.8c0-2.5-2.1-4.6-4.7-4.6
			H79v9.1h3.5C85,152.3,87.1,150.3,87.1,147.8z"/>
		<path d="M93.8,142.6v10.3h-0.6v-10.3H93.8z"/>
		<path d="M107.3,152.9l-2.4-3.5c-0.3,0-0.6,0.1-0.9,0.1h-3v3.4h-0.6v-10.3h3.7c2.6,0,4,1.2,4,3.4c0,1.8-0.9,2.9-2.5,3.3l2.6,3.6
			H107.3z M104,148.9c2.2,0,3.4-1,3.4-2.9c0-1.8-1.2-2.8-3.4-2.8h-3v5.7H104z"/>
		<path d="M120.6,142.6v0.6h-6.1v4.1h5.4v0.6h-5.4v4.4h6.2v0.6H114v-10.3H120.6z"/>
		<path d="M130.8,143.2c-2.6,0-4.7,2-4.7,4.6c0,2.5,2.1,4.6,4.7,4.6c1.2,0,2.4-0.5,3.3-1.3l0.4,0.4c-1,0.9-2.3,1.4-3.7,1.4
			c-2.9,0-5.3-2.3-5.3-5.2c0-2.9,2.4-5.2,5.3-5.2c1.4,0,2.7,0.5,3.6,1.4l-0.4,0.5C133.2,143.6,132,143.2,130.8,143.2z"/>
		<path d="M145.9,142.6v0.6h-3.5v9.7h-0.6v-9.7h-3.5v-0.6H145.9z"/>
		<path d="M159.7,147.7c0,2.9-2.4,5.2-5.4,5.2s-5.4-2.3-5.4-5.2c0-2.9,2.4-5.2,5.4-5.2S159.7,144.9,159.7,147.7z M149.6,147.7
			c0,2.5,2.1,4.6,4.7,4.6c2.6,0,4.7-2.1,4.7-4.6c0-2.5-2.1-4.6-4.7-4.6C151.7,143.2,149.6,145.2,149.6,147.7z"/>
		<path d="M172.1,152.9l-2.4-3.5c-0.3,0-0.6,0.1-0.9,0.1h-3v3.4h-0.6v-10.3h3.7c2.6,0,4,1.2,4,3.4c0,1.8-0.9,2.9-2.5,3.3l2.6,3.6
			H172.1z M168.8,148.9c2.2,0,3.4-1,3.4-2.9c0-1.8-1.2-2.8-3.4-2.8h-3v5.7H168.8z"/>
	</g>
</g>
</svg>
